<?xml version="1.0" standalone="no"?>
<!DOCTYPE svg PUBLIC "-//W3C//DTD SVG 20010904//EN"
 "http://www.w3.org/TR/2001/REC-SVG-20010904/DTD/svg10.dtd">
<svg version="1.0" xmlns="http://www.w3.org/2000/svg"
 width="512.000000pt" height="512.000000pt" viewBox="0 0 512.000000 512.000000"
 preserveAspectRatio="xMidYMid meet">

<g transform="translate(0.000000,512.000000) scale(0.100000,-0.100000)"
fill="#000000" stroke="none">
<path d="M2095 4903 c-59 -7 -121 -26 -171 -54 -107 -60 -199 -197 -211 -313
l-6 -56 -652 0 c-396 0 -673 -4 -705 -10 -170 -32 -308 -170 -340 -339 -6 -35
-10 -633 -10 -1685 0 -1371 3 -1641 14 -1691 34 -143 139 -256 284 -306 51
-18 90 -19 560 -19 l505 0 59 -65 c101 -111 252 -166 396 -145 81 11 2962 876
3038 911 168 78 276 265 261 449 -7 84 -872 2974 -919 3070 -41 84 -121 160
-218 208 -74 36 -77 37 -195 37 l-120 -1 -535 -162 c-294 -90 -544 -165 -556
-168 -18 -5 -24 2 -38 48 -44 134 -148 235 -286 276 -43 13 -115 20 -155 15z
m136 -236 c51 -27 97 -87 105 -138 8 -48 4 -49 -228 -49 -205 0 -196 -3 -177
63 33 120 187 183 300 124z m1670 -4 c103 -53 69 44 559 -1589 475 -1583 463
-1538 426 -1626 -24 -55 -68 -101 -123 -126 -26 -12 -703 -218 -1503 -458
-1392 -417 -1458 -436 -1518 -431 -79 6 -144 44 -187 107 -24 36 -121 347
-470 1510 -389 1296 -440 1472 -440 1530 1 127 69 202 225 250 254 78 1034
310 1041 310 4 0 9 -109 11 -242 3 -229 4 -246 26 -294 42 -92 135 -164 240
-184 134 -25 286 56 344 184 22 50 23 60 26 392 l3 341 582 176 c653 197 661
198 758 150z m-2333 -398 c-2 -3 -193 -61 -422 -130 -230 -69 -441 -137 -469
-151 -66 -34 -150 -114 -186 -178 -47 -82 -64 -156 -59 -255 5 -78 47 -224
427 -1489 231 -771 421 -1407 421 -1412 0 -7 -156 -10 -447 -10 -495 0 -491 0
-557 66 -66 66 -61 -66 -64 1719 -2 1165 1 1635 9 1674 15 71 84 144 150 159
44 10 1207 17 1197 7z m782 -257 c0 -150 -5 -279 -10 -300 -29 -104 -171 -104
-200 0 -5 20 -10 141 -10 269 l0 231 73 22 c39 11 83 25 97 30 52 18 50 28 50
-252z"/>
</g>
</svg>
